<svg xmlns="http://www.w3.org/2000/svg" id="svg3317" width="1024" height="500" version="1.1" viewBox="0 0 1024 500"><g id="layer1" transform="translate(0,-552.36218)"><path id="path4626" d="m 0,552.36218 0,125 0,125 0,125 0,125.00002 118.15399,0 118.15399,0 118.15399,0 118.154,0 118.15399,0 118.15399,0 118.15399,0 118.15399,0 19.69296,0 19.69108,0 19.69293,0 19.6911,0 0,-125.00002 0,-125 0,-125 0,-125 -19.6911,0 -19.69293,0 -19.69108,0 -19.69296,0 -118.15399,0 -118.15399,0 -118.15399,0 -118.15399,0 -118.154,0 -118.15399,0 -118.15399,0 -118.15399,0 z" style="fill:#399ed7;fill-opacity:1;fill-rule:nonzero;stroke:none"/><rect style="fill:#fff;fill-opacity:.25098039;fill-rule:nonzero;stroke:none" id="rect4628" width="85.333" height="85.333" x="0" y="637.696"/><rect id="rect4630" width="85.333" height="85.333" x="85.333" y="637.696" style="fill:#fff;fill-opacity:.1254902;fill-rule:nonzero;stroke:none"/><rect style="fill:#fff;fill-opacity:0;fill-rule:nonzero;stroke:none" id="rect4632" width="85.333" height="85.333" x="170.667" y="637.696"/><rect id="rect4634" width="85.333" height="85.333" x="256" y="637.696" style="fill:#fff;fill-opacity:.25098039;fill-rule:nonzero;stroke:none"/><rect id="rect4636" width="85.333" height="85.333" x="0" y="723.029" style="fill:#fff;fill-opacity:0;fill-rule:nonzero;stroke:none"/><rect style="fill:#fff;fill-opacity:.25098039;fill-rule:nonzero;stroke:none" id="rect4638" width="85.333" height="85.333" x="85.333" y="723.029"/><rect id="rect4640" width="85.333" height="85.333" x="170.667" y="723.029" style="fill:#fff;fill-opacity:.37647059;fill-rule:nonzero;stroke:none"/><rect style="fill:#fff;fill-opacity:.1254902;fill-rule:nonzero;stroke:none" id="rect4642" width="85.333" height="85.333" x="256" y="723.029"/><rect style="fill:#fff;fill-opacity:.25098039;fill-rule:nonzero;stroke:none" id="rect4644" width="85.333" height="85.333" x="0" y="808.362"/><rect id="rect4646" width="85.333" height="85.333" x="85.333" y="808.362" style="fill:#fff;fill-opacity:.1254902;fill-rule:nonzero;stroke:none"/><rect style="fill:#fff;fill-opacity:.25098039;fill-rule:nonzero;stroke:none" id="rect4648" width="85.333" height="85.333" x="170.667" y="808.362"/><rect id="rect4650" width="85.333" height="85.333" x="256" y="808.362" style="fill:#fff;fill-opacity:.37647059;fill-rule:nonzero;stroke:none"/><rect id="rect4652" width="85.333" height="85.333" x="0" y="893.695" style="fill:#fff;fill-opacity:.1254902;fill-rule:nonzero;stroke:none"/><rect style="fill:#fff;fill-opacity:.25098039;fill-rule:nonzero;stroke:none" id="rect4654" width="85.333" height="85.333" x="85.333" y="893.695"/><rect id="rect4656" width="85.333" height="85.333" x="170.667" y="893.695" style="fill:#fff;fill-opacity:.1254902;fill-rule:nonzero;stroke:none"/><rect style="fill:#fff;fill-opacity:.25098039;fill-rule:nonzero;stroke:none" id="rect4658" width="85.333" height="85.333" x="256" y="893.695"/><rect id="rect4660" width="85.333" height="85.333" x="341.333" y="637.696" style="fill:#fff;fill-opacity:.1254902;fill-rule:nonzero;stroke:none"/><rect style="fill:#fff;fill-opacity:0;fill-rule:nonzero;stroke:none" id="rect4662" width="85.333" height="85.333" x="341.333" y="723.029"/><rect id="rect4664" width="85.333" height="85.333" x="341.333" y="808.362" style="fill:#fff;fill-opacity:.25098039;fill-rule:nonzero;stroke:none"/><rect style="fill:#fff;fill-opacity:.1254902;fill-rule:nonzero;stroke:none" id="rect4666" width="85.333" height="85.333" x="341.333" y="893.695"/><rect id="rect4668" width="85.333" height="85.333" x="0" y="979.029" style="fill:#fff;fill-opacity:0;fill-rule:nonzero;stroke:none"/><rect style="fill:#fff;fill-opacity:.1254902;fill-rule:nonzero;stroke:none" id="rect4670" width="85.333" height="85.333" x="85.333" y="979.029"/><rect id="rect4672" width="85.333" height="85.333" x="170.667" y="979.029" style="fill:#fff;fill-opacity:.25098039;fill-rule:nonzero;stroke:none"/><rect style="fill:#fff;fill-opacity:.37647059;fill-rule:nonzero;stroke:none" id="rect4674" width="85.333" height="85.333" x="256" y="979.029"/><rect style="fill:#fff;fill-opacity:.25098039;fill-rule:nonzero;stroke:none" id="rect4676" width="85.333" height="85.333" x="341.333" y="979.029"/><rect style="fill:#fff;fill-opacity:.25098039;fill-rule:nonzero;stroke:none" id="rect4678" width="85.333" height="85.333" x="426.666" y="637.696"/><rect id="rect4680" width="85.333" height="85.333" x="426.666" y="723.029" style="fill:#fff;fill-opacity:.1254902;fill-rule:nonzero;stroke:none"/><rect style="fill:#fff;fill-opacity:0;fill-rule:nonzero;stroke:none" id="rect4682" width="85.333" height="85.333" x="426.666" y="808.362"/><rect id="rect4684" width="85.333" height="85.333" x="426.666" y="893.695" style="fill:#fff;fill-opacity:.25098039;fill-rule:nonzero;stroke:none"/><rect id="rect4686" width="85.333" height="85.333" x="426.666" y="979.029" style="fill:#fff;fill-opacity:.1254902;fill-rule:nonzero;stroke:none"/><rect id="rect4688" width="85.333" height="85.333" x="0" y="552.362" style="fill:#fff;fill-opacity:.37647059;fill-rule:nonzero;stroke:none"/><rect style="fill:#fff;fill-opacity:.25098039;fill-rule:nonzero;stroke:none" id="rect4690" width="85.333" height="85.333" x="85.333" y="552.362"/><rect id="rect4692" width="85.333" height="85.333" x="170.667" y="552.362" style="fill:#fff;fill-opacity:.37647059;fill-rule:nonzero;stroke:none"/><rect style="fill:#fff;fill-opacity:.1254902;fill-rule:nonzero;stroke:none" id="rect4694" width="85.333" height="85.333" x="256" y="552.362"/><rect style="fill:#fff;fill-opacity:.25098039;fill-rule:nonzero;stroke:none" id="rect4696" width="85.333" height="85.333" x="341.333" y="552.362"/><rect id="rect4698" width="85.333" height="85.333" x="426.666" y="552.362" style="fill:#fff;fill-opacity:.37647059;fill-rule:nonzero;stroke:none"/><rect id="rect4700" width="85.333" height="85.333" x="512" y="637.696" style="fill:#fff;fill-opacity:.3764706;fill-rule:nonzero;stroke:none"/><rect style="fill:#fff;fill-opacity:.25098041;fill-rule:nonzero;stroke:none" id="rect4702" width="85.333" height="85.333" x="597.334" y="637.696"/><rect id="rect4704" width="85.333" height="85.333" x="682.667" y="637.696" style="fill:#fff;fill-opacity:0;fill-rule:nonzero;stroke:none"/><rect style="fill:#fff;fill-opacity:.25098039;fill-rule:nonzero;stroke:none" id="rect4706" width="85.333" height="85.333" x="768" y="637.696"/><rect style="fill:#fff;fill-opacity:0;fill-rule:nonzero;stroke:none" id="rect4708" width="85.333" height="85.333" x="512" y="723.029"/><rect id="rect4710" width="85.333" height="85.333" x="597.334" y="723.029" style="fill:#fff;fill-opacity:.37254903;fill-rule:nonzero;stroke:none"/><rect style="fill:#fff;fill-opacity:.1254902;fill-rule:nonzero;stroke:none" id="rect4712" width="85.333" height="85.333" x="682.667" y="723.029"/><rect id="rect4714" width="85.333" height="85.333" x="768" y="723.029" style="fill:#fff;fill-opacity:.3764706;fill-rule:nonzero;stroke:none"/><rect id="rect4716" width="85.333" height="85.333" x="512" y="808.362" style="fill:#fff;fill-opacity:.25098039;fill-rule:nonzero;stroke:none"/><rect style="fill:#fff;fill-opacity:.1254902;fill-rule:nonzero;stroke:none" id="rect4718" width="85.333" height="85.333" x="597.334" y="808.362"/><rect id="rect4720" width="85.333" height="85.333" x="682.667" y="808.362" style="fill:#fff;fill-opacity:.25098039;fill-rule:nonzero;stroke:none"/><rect style="fill:#fff;fill-opacity:.1254902;fill-rule:nonzero;stroke:none" id="rect4722" width="85.333" height="85.333" x="768" y="808.362"/><rect style="fill:#fff;fill-opacity:.1254902;fill-rule:nonzero;stroke:none" id="rect4724" width="85.333" height="85.333" x="512" y="893.695"/><rect id="rect4726" width="85.333" height="85.333" x="597.334" y="893.695" style="fill:#fff;fill-opacity:.25098039;fill-rule:nonzero;stroke:none"/><rect style="fill:#fff;fill-opacity:.1254902;fill-rule:nonzero;stroke:none" id="rect4728" width="85.333" height="85.333" x="682.667" y="893.695"/><rect id="rect4730" width="85.333" height="85.333" x="768" y="893.695" style="fill:#fff;fill-opacity:.25098039;fill-rule:nonzero;stroke:none"/><rect style="fill:#fff;fill-opacity:.1254902;fill-rule:nonzero;stroke:none" id="rect4732" width="85.333" height="85.333" x="853.333" y="637.696"/><rect id="rect4734" width="85.333" height="85.333" x="853.333" y="723.029" style="fill:#fff;fill-opacity:0;fill-rule:nonzero;stroke:none"/><rect style="fill:#fff;fill-opacity:.25098039;fill-rule:nonzero;stroke:none" id="rect4736" width="85.333" height="85.333" x="853.333" y="808.362"/><rect id="rect4738" width="85.333" height="85.333" x="853.333" y="893.695" style="fill:#fff;fill-opacity:.1254902;fill-rule:nonzero;stroke:none"/><rect style="fill:#fff;fill-opacity:0;fill-rule:nonzero;stroke:none" id="rect4740" width="85.333" height="85.333" x="512" y="979.029"/><rect id="rect4742" width="85.333" height="85.333" x="597.334" y="979.029" style="fill:#fff;fill-opacity:.1254902;fill-rule:nonzero;stroke:none"/><rect style="fill:#fff;fill-opacity:.25098039;fill-rule:nonzero;stroke:none" id="rect4744" width="85.333" height="85.333" x="682.667" y="979.029"/><rect id="rect4746" width="85.333" height="85.333" x="768" y="979.029" style="fill:#fff;fill-opacity:.37647059;fill-rule:nonzero;stroke:none"/><rect id="rect4748" width="85.333" height="85.333" x="853.333" y="979.029" style="fill:#fff;fill-opacity:.25098039;fill-rule:nonzero;stroke:none"/><rect id="rect4750" width="85.333" height="85.333" x="938.667" y="637.696" style="fill:#fff;fill-opacity:.25098039;fill-rule:nonzero;stroke:none"/><rect style="fill:#fff;fill-opacity:.1254902;fill-rule:nonzero;stroke:none" id="rect4752" width="85.333" height="85.333" x="938.667" y="723.029"/><rect id="rect4754" width="85.333" height="85.333" x="938.667" y="808.362" style="fill:#fff;fill-opacity:0;fill-rule:nonzero;stroke:none"/><rect style="fill:#fff;fill-opacity:.25098039;fill-rule:nonzero;stroke:none" id="rect4756" width="85.333" height="85.333" x="938.667" y="893.695"/><rect style="fill:#fff;fill-opacity:.1254902;fill-rule:nonzero;stroke:none" id="rect4758" width="85.333" height="85.333" x="938.667" y="979.029"/><rect style="fill:#fff;fill-opacity:.25098041;fill-rule:nonzero;stroke:none" id="rect4760" width="85.333" height="85.333" x="512" y="552.362"/><rect id="rect4762" width="85.333" height="85.333" x="597.334" y="552.362" style="fill:#fff;fill-opacity:.1254902;fill-rule:nonzero;stroke:none"/><rect style="fill:#fff;fill-opacity:.37647059;fill-rule:nonzero;stroke:none" id="rect4764" width="85.333" height="85.333" x="682.667" y="552.362"/><rect id="rect4766" width="85.333" height="85.333" x="768" y="552.362" style="fill:#fff;fill-opacity:.1254902;fill-rule:nonzero;stroke:none"/><rect id="rect4768" width="85.333" height="85.333" x="853.333" y="552.362" style="fill:#fff;fill-opacity:.25098039;fill-rule:nonzero;stroke:none"/><rect style="fill:#fff;fill-opacity:.37647059;fill-rule:nonzero;stroke:none" id="rect4770" width="85.333" height="85.333" x="938.667" y="552.362"/></g></svg>