<svg xmlns="http://www.w3.org/2000/svg" xmlns:svg="http://www.w3.org/2000/svg" id="svg3317" width="108" height="108" version="1.1"><metadata id="metadata3322"/><g id="layer1" transform="translate(0,-944.36218)"><flowRoot id="flowRoot3776" xml:space="preserve" style="font-style:normal;font-weight:400;font-size:40px;line-height:125%;font-family:Sans;letter-spacing:0;word-spacing:0;fill:#000;fill-opacity:1;stroke:none;stroke-width:1px;stroke-linecap:butt;stroke-linejoin:miter;stroke-opacity:1"><flowRegion id="flowRegion3778"><rect id="rect3780" width="29" height="71" x="52" y="60"/></flowRegion><flowPara id="flowPara3782"/></flowRoot><flowRoot id="flowRoot3776-6" transform="translate(532.64516,-5.806285)" xml:space="preserve" style="font-style:normal;font-weight:400;font-size:40px;line-height:125%;font-family:Sans;letter-spacing:0;word-spacing:0;fill:#000;fill-opacity:1;stroke:none;stroke-width:1px;stroke-linecap:butt;stroke-linejoin:miter;stroke-opacity:1"><flowRegion id="flowRegion3778-7"><rect id="rect3780-2" width="29" height="71" x="52" y="60"/></flowRegion><flowPara id="flowPara3782-0"/></flowRoot><path style="fill:#399ed7;fill-opacity:1;fill-rule:nonzero;stroke:none" id="path4893" d="m 0,944.36249 0,13.49989 0,13.4999 0,13.49985 0,1.47324 0,12.02667 0,4.48006 0,16.5067 0,16.5066 0,16.5068 15.361378,0 15.361393,0 15.361114,0 7.916252,0 0,0 13.499963,0 13.499962,0 13.499963,0 13.499975,0 0,-13.5 0,-13.4998 0,-13.4999 0,-13.4999 0,-6.8426 0,-15.71916 0,-15.71918 0,-15.71919 -13.499975,0 -13.499963,0 -13.499962,0 -7.486585,0 0,-2.7e-4 -15.003517,0 -15.00324,0 -15.003241,0 -15.003517,0 z"/><rect style="fill:#fff;fill-opacity:.25098039;fill-rule:nonzero;stroke:none" id="rect4895" width="14.417" height="14.417" x="-18" y="-947.946" transform="scale(-1,-1)"/><rect id="rect4897" width="14.417" height="14.417" x="-3.583" y="-947.946" style="fill:#fff;fill-opacity:.1254902;fill-rule:nonzero;stroke:none" transform="scale(-1,-1)"/><rect id="rect4955" width="14.417" height="14.417" x="-18" y="-962.362" style="fill:#fff;fill-opacity:.37647059;fill-rule:nonzero;stroke:none" transform="scale(-1,-1)"/><rect style="fill:#fff;fill-opacity:.25098039;fill-rule:nonzero;stroke:none" id="rect4957" width="14.417" height="14.417" x="-3.583" y="-962.362" transform="scale(-1,-1)"/><rect id="rect4935" width="14.417" height="14.417" x="-18" y="-1063.279" style="fill:#fff;fill-opacity:0;fill-rule:nonzero;stroke:none" transform="scale(-1,-1)"/><rect style="fill:#fff;fill-opacity:.1254902;fill-rule:nonzero;stroke:none" id="rect4937" width="14.417" height="14.417" x="-3.583" y="-1063.279" transform="scale(-1,-1)"/><rect id="rect5572" width="14.417" height="14.417" x="-10.833" y="-1034.445" style="fill:#fff;fill-opacity:.1254902;fill-rule:nonzero;stroke:none" transform="scale(1,-1)"/><rect style="fill:#fff;fill-opacity:0;fill-rule:nonzero;stroke:none" id="rect5574" width="14.417" height="14.417" x="-10.833" y="-1020.029" transform="scale(1,-1)"/><rect id="rect5576" width="14.417" height="14.417" x="-10.833" y="-1005.612" style="fill:#fff;fill-opacity:.25098039;fill-rule:nonzero;stroke:none" transform="scale(1,-1)"/><rect style="fill:#fff;fill-opacity:.1254902;fill-rule:nonzero;stroke:none" id="rect5578" width="14.417" height="14.417" x="-10.833" y="-991.196" transform="scale(1,-1)"/><rect style="fill:#fff;fill-opacity:.25098039;fill-rule:nonzero;stroke:none" id="rect5588" width="14.417" height="14.417" x="-10.833" y="-976.779" transform="scale(1,-1)"/><rect style="fill:#fff;fill-opacity:.25098039;fill-rule:nonzero;stroke:none" id="rect5590" width="14.417" height="14.417" x="3.583" y="-1034.445" transform="scale(1,-1)"/><rect id="rect5592" width="14.417" height="14.417" x="3.583" y="-1020.029" style="fill:#fff;fill-opacity:.1254902;fill-rule:nonzero;stroke:none" transform="scale(1,-1)"/><rect style="fill:#fff;fill-opacity:0;fill-rule:nonzero;stroke:none" id="rect5594" width="14.417" height="14.417" x="3.583" y="-1005.612" transform="scale(1,-1)"/><rect id="rect5596" width="14.417" height="14.417" x="3.583" y="-991.196" style="fill:#fff;fill-opacity:.25098039;fill-rule:nonzero;stroke:none" transform="scale(1,-1)"/><rect id="rect5598" width="14.417" height="14.417" x="3.583" y="-976.779" style="fill:#fff;fill-opacity:.1254902;fill-rule:nonzero;stroke:none" transform="scale(1,-1)"/><rect style="fill:#fff;fill-opacity:.25098039;fill-rule:nonzero;stroke:none" id="rect5608" width="14.417" height="14.417" x="-10.833" y="-1048.862" transform="scale(1,-1)"/><rect id="rect5610" width="14.417" height="14.417" x="3.583" y="-1048.862" style="fill:#fff;fill-opacity:.37647059;fill-rule:nonzero;stroke:none" transform="scale(1,-1)"/><rect style="fill:#fff;fill-opacity:.25098039;fill-rule:nonzero;stroke:none" id="rect4945" width="14.417" height="14.417" x="-118.917" y="-947.946" transform="scale(-1,-1)"/><rect id="rect4965" width="14.417" height="14.417" x="-118.917" y="-962.362" style="fill:#fff;fill-opacity:.37647059;fill-rule:nonzero;stroke:none" transform="scale(-1,-1)"/><rect style="fill:#fff;fill-opacity:.1254902;fill-rule:nonzero;stroke:none" id="rect5486" width="14.417" height="14.417" x="18" y="933.529"/><rect id="rect5488" width="14.417" height="14.417" x="32.417" y="933.529" style="fill:#fff;fill-opacity:.25098039;fill-rule:nonzero;stroke:none"/><rect style="fill:#fff;fill-opacity:.1254902;fill-rule:nonzero;stroke:none" id="rect5490" width="14.417" height="14.417" x="46.833" y="933.529"/><rect id="rect5492" width="14.417" height="14.417" x="61.25" y="933.529" style="fill:#fff;fill-opacity:.25098039;fill-rule:nonzero;stroke:none"/><rect id="rect5500" width="14.417" height="14.417" x="75.667" y="933.529" style="fill:#fff;fill-opacity:.1254902;fill-rule:nonzero;stroke:none"/><rect style="fill:#fff;fill-opacity:0;fill-rule:nonzero;stroke:none" id="rect5502" width="14.417" height="14.417" x="18" y="947.946"/><rect id="rect5504" width="14.417" height="14.417" x="32.417" y="947.946" style="fill:#fff;fill-opacity:.1254902;fill-rule:nonzero;stroke:none"/><rect style="fill:#fff;fill-opacity:.25098039;fill-rule:nonzero;stroke:none" id="rect5506" width="14.417" height="14.417" x="46.833" y="947.946"/><rect id="rect5508" width="14.417" height="14.417" x="61.25" y="947.946" style="fill:#fff;fill-opacity:.37647059;fill-rule:nonzero;stroke:none"/><rect id="rect5510" width="14.417" height="14.417" x="75.667" y="947.946" style="fill:#fff;fill-opacity:.25098039;fill-rule:nonzero;stroke:none"/><rect style="fill:#fff;fill-opacity:.25098039;fill-rule:nonzero;stroke:none" id="rect5518" width="14.417" height="14.417" x="90.083" y="933.529"/><rect style="fill:#fff;fill-opacity:.1254902;fill-rule:nonzero;stroke:none" id="rect5520" width="14.417" height="14.417" x="90.083" y="947.946"/><rect id="rect4953" width="14.417" height="14.417" x="-118.917" y="-1063.279" style="fill:#fff;fill-opacity:.1254902;fill-rule:nonzero;stroke:none" transform="scale(-1,-1)"/><rect style="fill:#fff;fill-opacity:.37647059;fill-rule:nonzero;stroke:none" id="rect5522" width="14.417" height="14.417" x="18" y="1048.863"/><rect id="rect5524" width="14.417" height="14.417" x="32.417" y="1048.863" style="fill:#fff;fill-opacity:.25098039;fill-rule:nonzero;stroke:none"/><rect style="fill:#fff;fill-opacity:.37647059;fill-rule:nonzero;stroke:none" id="rect5526" width="14.417" height="14.417" x="46.833" y="1048.863"/><rect id="rect5528" width="14.417" height="14.417" x="61.25" y="1048.863" style="fill:#fff;fill-opacity:.1254902;fill-rule:nonzero;stroke:none"/><rect id="rect5530" width="14.417" height="14.417" x="75.667" y="1048.863" style="fill:#fff;fill-opacity:.25098039;fill-rule:nonzero;stroke:none"/><rect style="fill:#fff;fill-opacity:.37647059;fill-rule:nonzero;stroke:none" id="rect5532" width="14.417" height="14.417" x="90.083" y="1048.863"/><rect style="fill:#fff;fill-opacity:.25098039;fill-rule:nonzero;stroke:none" id="rect5540" width="14.417" height="14.417" x="104.5" y="-1034.445" transform="scale(1,-1)"/><rect id="rect5548" width="14.417" height="14.417" x="104.5" y="-1020.029" style="fill:#fff;fill-opacity:0;fill-rule:nonzero;stroke:none" transform="scale(1,-1)"/><rect style="fill:#fff;fill-opacity:.25098039;fill-rule:nonzero;stroke:none" id="rect5556" width="14.417" height="14.417" x="104.5" y="-1005.612" transform="scale(1,-1)"/><rect id="rect5564" width="14.417" height="14.417" x="104.5" y="-991.196" style="fill:#fff;fill-opacity:.1254902;fill-rule:nonzero;stroke:none" transform="scale(1,-1)"/><rect id="rect5580" width="14.417" height="14.417" x="104.5" y="-976.779" style="fill:#fff;fill-opacity:0;fill-rule:nonzero;stroke:none" transform="scale(1,-1)"/><rect id="rect5600" width="14.417" height="14.417" x="104.5" y="-1048.862" style="fill:#fff;fill-opacity:.37647059;fill-rule:nonzero;stroke:none" transform="scale(1,-1)"/><rect id="rect5618" width="14.417" height="14.417" x="18" y="976.78" style="fill:#fff;fill-opacity:.25098039;fill-rule:nonzero;stroke:none"/><rect style="fill:#fff;fill-opacity:.1254902;fill-rule:nonzero;stroke:none" id="rect5620" width="14.417" height="14.417" x="32.417" y="976.78"/><rect id="rect5622" width="14.417" height="14.417" x="46.833" y="976.78" style="fill:#fff;fill-opacity:0;fill-rule:nonzero;stroke:none"/><rect style="fill:#fff;fill-opacity:.25098039;fill-rule:nonzero;stroke:none" id="rect5624" width="14.417" height="14.417" x="61.25" y="976.78"/><rect style="fill:#fff;fill-opacity:0;fill-rule:nonzero;stroke:none" id="rect5626" width="14.417" height="14.417" x="18" y="991.196"/><rect id="rect5628" width="14.417" height="14.417" x="32.417" y="991.196" style="fill:#fff;fill-opacity:.25098039;fill-rule:nonzero;stroke:none"/><rect style="fill:#fff;fill-opacity:.37647059;fill-rule:nonzero;stroke:none" id="rect5630" width="14.417" height="14.417" x="46.833" y="991.196"/><rect id="rect5632" width="14.417" height="14.417" x="61.25" y="991.196" style="fill:#fff;fill-opacity:.1254902;fill-rule:nonzero;stroke:none"/><rect id="rect5634" width="14.417" height="14.417" x="18" y="1005.613" style="fill:#fff;fill-opacity:.25098039;fill-rule:nonzero;stroke:none"/><rect style="fill:#fff;fill-opacity:.1254902;fill-rule:nonzero;stroke:none" id="rect5636" width="14.417" height="14.417" x="32.417" y="1005.613"/><rect id="rect5638" width="14.417" height="14.417" x="46.833" y="1005.613" style="fill:#fff;fill-opacity:.25098039;fill-rule:nonzero;stroke:none"/><rect style="fill:#fff;fill-opacity:.37647059;fill-rule:nonzero;stroke:none" id="rect5640" width="14.417" height="14.417" x="61.25" y="1005.613"/><rect style="fill:#fff;fill-opacity:.1254902;fill-rule:nonzero;stroke:none" id="rect5642" width="14.417" height="14.417" x="18" y="1020.029"/><rect id="rect5644" width="14.417" height="14.417" x="32.417" y="1020.029" style="fill:#fff;fill-opacity:.25098039;fill-rule:nonzero;stroke:none"/><rect style="fill:#fff;fill-opacity:.1254902;fill-rule:nonzero;stroke:none" id="rect5646" width="14.417" height="14.417" x="46.833" y="1020.029"/><rect id="rect5648" width="14.417" height="14.417" x="61.25" y="1020.029" style="fill:#fff;fill-opacity:.25098039;fill-rule:nonzero;stroke:none"/><rect style="fill:#fff;fill-opacity:.1254902;fill-rule:nonzero;stroke:none" id="rect5650" width="14.417" height="14.417" x="75.667" y="976.78"/><rect id="rect5652" width="14.417" height="14.417" x="75.667" y="991.196" style="fill:#fff;fill-opacity:0;fill-rule:nonzero;stroke:none"/><rect style="fill:#fff;fill-opacity:.25098039;fill-rule:nonzero;stroke:none" id="rect5654" width="14.417" height="14.417" x="75.667" y="1005.613"/><rect id="rect5656" width="14.417" height="14.417" x="75.667" y="1020.029" style="fill:#fff;fill-opacity:.1254902;fill-rule:nonzero;stroke:none"/><rect style="fill:#fff;fill-opacity:0;fill-rule:nonzero;stroke:none" id="rect5658" width="14.417" height="14.417" x="18" y="1034.446"/><rect id="rect5660" width="14.417" height="14.417" x="32.417" y="1034.446" style="fill:#fff;fill-opacity:.1254902;fill-rule:nonzero;stroke:none"/><rect style="fill:#fff;fill-opacity:.25098039;fill-rule:nonzero;stroke:none" id="rect5662" width="14.417" height="14.417" x="46.833" y="1034.446"/><rect id="rect5664" width="14.417" height="14.417" x="61.25" y="1034.446" style="fill:#fff;fill-opacity:.37647059;fill-rule:nonzero;stroke:none"/><rect id="rect5666" width="14.417" height="14.417" x="75.667" y="1034.446" style="fill:#fff;fill-opacity:.25098039;fill-rule:nonzero;stroke:none"/><rect id="rect5668" width="14.417" height="14.417" x="90.083" y="976.78" style="fill:#fff;fill-opacity:.25098039;fill-rule:nonzero;stroke:none"/><rect style="fill:#fff;fill-opacity:.1254902;fill-rule:nonzero;stroke:none" id="rect5670" width="14.417" height="14.417" x="90.083" y="991.196"/><rect id="rect5672" width="14.417" height="14.417" x="90.083" y="1005.613" style="fill:#fff;fill-opacity:0;fill-rule:nonzero;stroke:none"/><rect style="fill:#fff;fill-opacity:.25098039;fill-rule:nonzero;stroke:none" id="rect5674" width="14.417" height="14.417" x="90.083" y="1020.029"/><rect style="fill:#fff;fill-opacity:.1254902;fill-rule:nonzero;stroke:none" id="rect5676" width="14.417" height="14.417" x="90.083" y="1034.446"/><rect style="fill:#fff;fill-opacity:.37647059;fill-rule:nonzero;stroke:none" id="rect5678" width="14.417" height="14.417" x="18" y="962.363"/><rect id="rect5680" width="14.417" height="14.417" x="32.417" y="962.363" style="fill:#fff;fill-opacity:.25098039;fill-rule:nonzero;stroke:none"/><rect style="fill:#fff;fill-opacity:.37647059;fill-rule:nonzero;stroke:none" id="rect5682" width="14.417" height="14.417" x="46.833" y="962.363"/><rect id="rect5684" width="14.417" height="14.417" x="61.25" y="962.363" style="fill:#fff;fill-opacity:.1254902;fill-rule:nonzero;stroke:none"/><rect id="rect5686" width="14.417" height="14.417" x="75.667" y="962.363" style="fill:#fff;fill-opacity:.25098039;fill-rule:nonzero;stroke:none"/><rect style="fill:#fff;fill-opacity:.37647059;fill-rule:nonzero;stroke:none" id="rect5688" width="14.417" height="14.417" x="90.083" y="962.363"/><flowRoot id="flowRoot3776-8" transform="translate(658.04407,24.647949)" xml:space="preserve" style="font-style:normal;font-weight:400;font-size:40px;line-height:125%;font-family:Sans;letter-spacing:0;word-spacing:0;fill:#000;fill-opacity:1;stroke:none;stroke-width:1px;stroke-linecap:butt;stroke-linejoin:miter;stroke-opacity:1"><flowRegion id="flowRegion3778-4"><rect id="rect3780-5" width="29" height="71" x="52" y="60"/></flowRegion><flowPara id="flowPara3782-2"/></flowRoot><flowRoot id="flowRoot3776-6-7" transform="matrix(0.15319136,0,0,0.15319148,127.35392,875.47681)" xml:space="preserve" style="font-style:normal;font-weight:400;font-size:40px;line-height:125%;font-family:Sans;letter-spacing:0;word-spacing:0;fill:#000;fill-opacity:1;stroke:none;stroke-width:1px;stroke-linecap:butt;stroke-linejoin:miter;stroke-opacity:1"><flowRegion id="flowRegion3778-9"><rect id="rect3780-6" width="29" height="71" x="52" y="60"/></flowRegion><flowPara id="flowPara3782-8"/></flowRoot><flowRoot id="flowRoot3776-5" xml:space="preserve" style="font-style:normal;font-weight:400;font-size:6.12765694px;line-height:125%;font-family:Sans;letter-spacing:0;word-spacing:0;fill:#000;fill-opacity:1;stroke:none;stroke-width:1px;stroke-linecap:butt;stroke-linejoin:miter;stroke-opacity:1"><flowRegion id="flowRegion3778-1"><rect id="rect3780-06" width="4.443" height="10.877" x="22.749" y="885.558"/></flowRegion><flowPara id="flowPara3782-01"/></flowRoot><flowRoot id="flowRoot5144" xml:space="preserve" style="font-style:normal;font-weight:400;font-size:6.62182283px;line-height:125%;font-family:Sans;letter-spacing:0;word-spacing:0;fill:#000;fill-opacity:1;stroke:none;stroke-width:1px;stroke-linecap:butt;stroke-linejoin:miter;stroke-opacity:1"><flowRegion id="flowRegion5146"><rect id="rect5148" width="4.801" height="11.754" x="-7.583" y="1012.761"/></flowRegion><flowPara id="flowPara5150"/></flowRoot><flowRoot id="flowRoot5388" xml:space="preserve" style="font-style:normal;font-weight:400;font-size:8.30198669px;line-height:125%;font-family:Sans;letter-spacing:0;word-spacing:0;fill:#000;fill-opacity:1;stroke:none;stroke-width:1px;stroke-linecap:butt;stroke-linejoin:miter;stroke-opacity:1"><flowRegion id="flowRegion5390"><rect id="rect5392" width="6.019" height="14.736" x="28.793" y="1021.592"/></flowRegion><flowPara id="flowPara5394"/></flowRoot><flowRoot id="flowRoot3776-2" transform="matrix(0.15319136,0,0,0.15319148,274.51689,845.19743)" xml:space="preserve" style="font-style:normal;font-weight:400;font-size:40px;line-height:125%;font-family:Sans;letter-spacing:0;word-spacing:0;fill:#000;fill-opacity:1;stroke:none;stroke-width:1px;stroke-linecap:butt;stroke-linejoin:miter;stroke-opacity:1"><flowRegion id="flowRegion3778-7-8"><rect id="rect3780-0" width="29" height="71" x="52" y="60"/></flowRegion><flowPara id="flowPara3782-5"/></flowRoot></g></svg>